<mxfile host="65bd71144e">
    <diagram id="1O385JWlQX-jpXV0Xw2z" name="Page-1">
        <mxGraphModel dx="1201" dy="800" grid="1" gridSize="10" guides="1" tooltips="1" connect="1" arrows="1" fold="1" page="1" pageScale="1" pageWidth="827" pageHeight="1169" math="0" shadow="0">
            <root>
                <mxCell id="0"/>
                <mxCell id="1" parent="0"/>
                <mxCell id="50" value="" style="rounded=0;whiteSpace=wrap;html=1;fontSize=12;verticalAlign=middle;fillColor=none;" parent="1" vertex="1">
                    <mxGeometry x="100" y="350" width="390" height="100" as="geometry"/>
                </mxCell>
                <mxCell id="2" value="CI/CD Pipeline&lt;br&gt;" style="swimlane;childLayout=stackLayout;resizeParent=1;resizeParentMax=0;startSize=20;verticalAlign=middle;fontSize=12;spacing=2;whiteSpace=wrap;html=1;" parent="1" vertex="1">
                    <mxGeometry x="100" y="150" width="750" height="190" as="geometry"/>
                </mxCell>
                <mxCell id="3" value="Install" style="swimlane;startSize=20;whiteSpace=wrap;" parent="2" vertex="1">
                    <mxGeometry y="20" width="150" height="170" as="geometry">
                        <mxRectangle y="20" width="30" height="470" as="alternateBounds"/>
                    </mxGeometry>
                </mxCell>
                <mxCell id="8" value="frontend-install-dependencies" style="html=1;fontSize=12;verticalAlign=middle;whiteSpace=wrap;" parent="3" vertex="1">
                    <mxGeometry x="20" y="89" width="110" height="50" as="geometry"/>
                </mxCell>
                <mxCell id="6" value="Test" style="swimlane;startSize=20;" parent="2" vertex="1">
                    <mxGeometry x="150" y="20" width="150" height="170" as="geometry"/>
                </mxCell>
                <mxCell id="13" value="backend-test" style="html=1;fontSize=12;verticalAlign=middle;whiteSpace=wrap;" parent="6" vertex="1">
                    <mxGeometry x="20" y="29" width="110" height="50" as="geometry"/>
                </mxCell>
                <mxCell id="14" value="frontend-test" style="html=1;fontSize=12;verticalAlign=middle;whiteSpace=wrap;" parent="6" vertex="1">
                    <mxGeometry x="20" y="89" width="110" height="50" as="geometry"/>
                </mxCell>
                <mxCell id="5" value="Code-Quality" style="swimlane;startSize=20;" parent="2" vertex="1">
                    <mxGeometry x="300" y="20" width="150" height="170" as="geometry"/>
                </mxCell>
                <mxCell id="15" value="backend-code-quality" style="html=1;fontSize=12;verticalAlign=middle;whiteSpace=wrap;dashed=1;" parent="5" vertex="1">
                    <mxGeometry x="20" y="29" width="110" height="50" as="geometry"/>
                </mxCell>
                <mxCell id="16" value="frontend-code-quality" style="html=1;fontSize=12;verticalAlign=middle;whiteSpace=wrap;dashed=1;" parent="5" vertex="1">
                    <mxGeometry x="20" y="89" width="110" height="50" as="geometry"/>
                </mxCell>
                <mxCell id="4" value="Build" style="swimlane;startSize=20;" parent="2" vertex="1">
                    <mxGeometry x="450" y="20" width="150" height="170" as="geometry"/>
                </mxCell>
                <mxCell id="11" value="backend-build" style="html=1;fontSize=12;verticalAlign=middle;whiteSpace=wrap;" parent="4" vertex="1">
                    <mxGeometry x="20" y="29" width="110" height="50" as="geometry"/>
                </mxCell>
                <mxCell id="12" value="frontend-build" style="html=1;fontSize=12;verticalAlign=middle;whiteSpace=wrap;" parent="4" vertex="1">
                    <mxGeometry x="20" y="89" width="110" height="50" as="geometry"/>
                </mxCell>
                <mxCell id="36" value="Publish" style="swimlane;startSize=20;" parent="2" vertex="1">
                    <mxGeometry x="600" y="20" width="150" height="170" as="geometry"/>
                </mxCell>
                <mxCell id="37" value="backend-publish" style="html=1;fontSize=12;verticalAlign=middle;whiteSpace=wrap;fillColor=#2A2A2A;" parent="36" vertex="1">
                    <mxGeometry x="20" y="29" width="110" height="50" as="geometry"/>
                </mxCell>
                <mxCell id="38" value="frontend-publish" style="html=1;fontSize=12;verticalAlign=middle;whiteSpace=wrap;fillColor=#2A2A2A;" parent="36" vertex="1">
                    <mxGeometry x="20" y="89" width="110" height="50" as="geometry"/>
                </mxCell>
                <mxCell id="59" value="&lt;span style=&quot;background-color: rgb(42 , 42 , 42)&quot;&gt;Only on Master&lt;/span&gt;" style="text;html=1;align=center;verticalAlign=middle;resizable=0;points=[];autosize=1;strokeColor=none;fillColor=#2a2a2a;" vertex="1" parent="36">
                    <mxGeometry x="27" y="142" width="100" height="20" as="geometry"/>
                </mxCell>
                <mxCell id="51" value="" style="edgeStyle=none;html=1;fontSize=12;" parent="2" source="14" target="16" edge="1">
                    <mxGeometry relative="1" as="geometry"/>
                </mxCell>
                <mxCell id="56" style="edgeStyle=none;html=1;exitX=1;exitY=0.5;exitDx=0;exitDy=0;entryX=0;entryY=0.5;entryDx=0;entryDy=0;fontSize=12;" parent="2" source="8" target="12" edge="1">
                    <mxGeometry relative="1" as="geometry">
                        <Array as="points">
                            <mxPoint x="170" y="180"/>
                            <mxPoint x="300" y="180"/>
                            <mxPoint x="430" y="180"/>
                        </Array>
                    </mxGeometry>
                </mxCell>
                <mxCell id="57" style="edgeStyle=none;html=1;exitX=1;exitY=0.5;exitDx=0;exitDy=0;entryX=0;entryY=0.5;entryDx=0;entryDy=0;" edge="1" parent="2" source="8" target="14">
                    <mxGeometry relative="1" as="geometry"/>
                </mxCell>
                <mxCell id="58" style="edgeStyle=none;html=1;exitX=1;exitY=0.5;exitDx=0;exitDy=0;entryX=0;entryY=0.5;entryDx=0;entryDy=0;" edge="1" parent="2" source="11" target="37">
                    <mxGeometry relative="1" as="geometry"/>
                </mxCell>
                <mxCell id="43" value="CI/CD job name" style="html=1;fontSize=12;verticalAlign=middle;whiteSpace=wrap;dashed=1;" parent="1" vertex="1">
                    <mxGeometry x="110" y="390" width="110" height="50" as="geometry"/>
                </mxCell>
                <mxCell id="44" value="May fail" style="text;html=1;strokeColor=none;fillColor=none;align=center;verticalAlign=middle;whiteSpace=wrap;rounded=0;fontSize=12;" parent="1" vertex="1">
                    <mxGeometry x="110" y="360" width="110" height="20" as="geometry"/>
                </mxCell>
                <mxCell id="45" value="To be implemented" style="text;html=1;strokeColor=none;fillColor=none;align=center;verticalAlign=middle;whiteSpace=wrap;rounded=0;fontSize=12;" parent="1" vertex="1">
                    <mxGeometry x="240" y="360" width="110" height="20" as="geometry"/>
                </mxCell>
                <mxCell id="46" value="Needs the previous job to succeed" style="text;html=1;strokeColor=none;fillColor=none;align=center;verticalAlign=middle;whiteSpace=wrap;rounded=0;fontSize=12;" parent="1" vertex="1">
                    <mxGeometry x="373.5" y="360" width="110" height="20" as="geometry"/>
                </mxCell>
                <mxCell id="47" value="" style="endArrow=classic;html=1;fontSize=12;" parent="1" edge="1">
                    <mxGeometry width="50" height="50" relative="1" as="geometry">
                        <mxPoint x="373.5" y="414.58000000000004" as="sourcePoint"/>
                        <mxPoint x="483.5" y="414.58000000000004" as="targetPoint"/>
                        <Array as="points">
                            <mxPoint x="433.5" y="414.58000000000004"/>
                        </Array>
                    </mxGeometry>
                </mxCell>
                <mxCell id="48" value="CI/CD job name" style="html=1;fontSize=12;verticalAlign=middle;whiteSpace=wrap;labelBorderColor=none;fillColor=#B0B0B0;" parent="1" vertex="1">
                    <mxGeometry x="240" y="390" width="110" height="50" as="geometry"/>
                </mxCell>
            </root>
        </mxGraphModel>
    </diagram>
</mxfile>